<svg width="55" height="67" viewBox="0 0 55 67" fill="none" xmlns="http://www.w3.org/2000/svg">
<path d="M54.877 39.6196C54.877 54.7193 42.5934 67 27.4995 67C12.4017 67 0.12207 54.7193 0.12207 39.6196C0.12207 26.2844 9.71 15.162 22.357 12.7457V9.67088C19.8697 9.45463 17.9195 7.39485 17.9195 4.85716C17.9195 2.17234 20.0918 0 22.7747 0H33.3313C36.0112 0 38.1874 2.17531 38.1874 4.85716C38.1874 7.39387 36.2343 9.45364 33.7529 9.67088V12.9946C37.0183 13.7628 40.1248 15.1136 42.9083 17.0124L47.1158 12.805L50.5036 25.7867L37.5209 22.4028L40.4645 19.4583C36.6135 16.9828 32.1148 15.6251 27.4956 15.6251C14.264 15.6251 3.49611 26.389 3.49611 39.6206C3.49611 52.8551 14.264 63.623 27.4956 63.623C40.7242 63.623 51.495 52.8561 51.495 39.6206H54.877V39.6196ZM20.6863 39.8743C18.3826 41.4937 16.8037 42.8949 15.9762 44.0798C15.1389 45.2578 14.7212 46.6748 14.7212 48.3277V48.3327H27.0542V45.2065H19.136L19.1469 45.1798C19.7472 44.3464 20.8561 43.4093 22.4854 42.3795C24.244 41.2538 25.4437 40.2427 26.0875 39.3461C26.7254 38.4406 27.0473 37.3041 27.0473 35.9335C27.0473 34.2618 26.4844 32.8972 25.3657 31.8426C24.2262 30.7831 22.7737 30.2548 20.9924 30.2548C19.0817 30.2548 17.5808 30.8295 16.4966 31.9779C15.4094 33.1292 14.8989 34.6795 14.9513 36.6464H18.4379C18.4063 35.5899 18.6186 34.7605 19.0689 34.1492C19.525 33.538 20.159 33.2329 20.9687 33.2329C21.7231 33.2329 22.3442 33.4788 22.7994 33.9695C23.2654 34.4543 23.4965 35.0962 23.4965 35.897C23.4965 36.6356 23.2812 37.3001 22.8675 37.9005C22.4508 38.4929 21.725 39.1555 20.6863 39.8743ZM35.2686 48.3336V44.3494H28.1107V42.8129V41.2765L34.7897 30.2459H36.7774H38.7542V41.5224H40.7952V44.3484H38.7542V48.3327H35.2686V48.3336ZM35.2686 41.5253V33.9922L30.8805 41.2775L30.7363 41.5253H35.2686ZM28.6045 18.4007H26.9179V21.7886H28.6045V18.4007ZM28.6045 56.792H26.9179V60.1798H28.6045V56.792ZM48.6473 40.134V38.4465H45.2594V40.134H48.6473ZM10.259 40.134V38.4465H6.87115V40.134H10.259Z" fill="#F1AF05"/>
</svg>
