<svg width="108" height="60" viewBox="0 0 108 60" fill="none" xmlns="http://www.w3.org/2000/svg">
<path d="M21.6 47.6333C19.6128 47.6333 17.9999 49.0072 17.9999 50.7C17.9999 52.3929 19.6128 53.7668 21.6 53.7668C23.5873 53.7668 25.2001 52.3929 25.2001 50.7C25.2001 49.0072 23.5873 47.6333 21.6 47.6333Z" fill="#F1AF05"/>
<path d="M86.4 47.6333C84.4128 47.6333 82.7999 49.0072 82.7999 50.7C82.7999 52.3929 84.4128 53.7668 86.4 53.7668C88.3872 53.7668 90.0001 52.3929 90.0001 50.7C90.0001 49.0072 88.3872 47.6333 86.4 47.6333Z" fill="#F1AF05"/>
<path d="M10.8 26.1667C11.7935 26.1667 12.5999 25.4798 12.5999 24.6335V16.9667H17.9999C18.9934 16.9667 19.7999 16.2798 19.7999 15.4335C19.7999 14.5871 18.9934 13.9002 17.9999 13.9002H12.5999V9.30019H19.7999C20.7934 9.30019 21.5998 8.61325 21.5998 7.76692C21.5998 6.92059 20.7934 6.23364 19.7999 6.23364H10.8C9.80648 6.23364 9.00006 6.92059 9.00006 7.76692V24.6336C9.00006 25.4798 9.80648 26.1667 10.8 26.1667Z" fill="#F1AF05"/>
<path d="M41.4001 26.1668H50.4001C51.3936 26.1668 52.2001 25.4799 52.2001 24.6335C52.2001 23.7872 51.3936 23.1003 50.4001 23.1003H43.2V16.967H46.8001C47.7936 16.967 48.6 16.28 48.6 15.4337C48.6 14.5874 47.7936 13.9004 46.8001 13.9004H43.2V9.30043H50.3999C51.3934 9.30043 52.1998 8.61349 52.1998 7.76716C52.1998 6.92083 51.3934 6.23389 50.3999 6.23389H41.3998C40.4063 6.23389 39.5999 6.92083 39.5999 7.76716V24.6339C39.5999 25.4799 40.4063 26.1668 41.4001 26.1668Z" fill="#F1AF05"/>
<path d="M55.7999 26.1668H64.8C65.7935 26.1668 66.5999 25.4799 66.5999 24.6335C66.5999 23.7872 65.7935 23.1003 64.8 23.1003H57.6001V16.967H61.2001C62.1937 16.967 63.0001 16.28 63.0001 15.4337C63.0001 14.5874 62.1937 13.9004 61.2001 13.9004H57.6001V9.30043H64.8C65.7935 9.30043 66.5999 8.61349 66.5999 7.76716C66.5999 6.92083 65.7935 6.23389 64.8 6.23389H55.7999C54.8064 6.23389 54 6.92083 54 7.76716V24.6339C54 25.4799 54.8064 26.1668 55.7999 26.1668Z" fill="#F1AF05"/>
<path d="M25.2 26.1668C26.1936 26.1668 27 25.4798 27 24.6335V18.5001H27.9359L34.5941 25.5918C34.9506 25.9706 35.4725 26.1668 36 26.1668C36.396 26.1668 36.7921 26.0565 37.125 25.831C37.9008 25.302 38.0267 24.3376 37.4057 23.6751L31.9427 17.8591C34.3349 16.861 35.9998 14.7848 35.9998 12.3668C35.9998 8.98418 32.7706 6.23352 28.7999 6.23352H25.1998C24.2063 6.23352 23.3999 6.92047 23.3999 7.76679V24.6335C23.3999 25.4798 24.2063 26.1668 25.2 26.1668ZM27 9.30007H28.7999C30.7852 9.30007 32.4 10.6754 32.4 12.3668C32.4 14.058 30.7855 15.4335 28.7999 15.4335H27V9.30007Z" fill="#F1AF05"/>
<path d="M106.292 33.8333H86.886C83.6405 33.8333 81 31.584 81 28.8193V21.5666C81 20.7203 81.8064 20.0333 82.7999 20.0333C83.7934 20.0333 84.5999 20.7203 84.5999 21.5666V28.8193C84.5999 29.8926 85.6259 30.7666 86.8858 30.7666H98.6055L94.2279 15.8504C93.6267 13.8003 91.472 12.3666 88.988 12.3666H77.3995V3.16658C77.3995 1.47536 75.785 0.0998535 73.7994 0.0998535H3.59944C1.61452 0.100033 0 1.47536 0 3.16676V30.7668V49.1668C0 50.858 1.61452 52.2335 3.60007 52.2335H10.962C11.8241 56.5773 16.2595 59.9 21.6 59.9C26.9405 59.9 31.3759 56.5773 32.238 52.2333H75.762C76.6241 56.5773 81.0595 59.9 86.4 59.9C91.7405 59.9 96.1759 56.5773 97.038 52.2333H104.4C106.385 52.2333 108 50.858 108 49.1666V36.4046C108 35.3314 107.332 34.3869 106.292 33.8333ZM21.6 56.8333C17.6291 56.8333 14.4001 54.0825 14.4001 50.7C14.4001 47.3176 17.6293 44.5668 21.6 44.5668C25.5709 44.5668 28.7999 47.3176 28.7999 50.7C28.7999 54.0825 25.5709 56.8333 21.6 56.8333ZM73.8001 13.9V15.438C73.8001 23.0449 66.5352 29.2333 57.6056 29.2333H3.60007V3.16676H73.8001V13.9ZM77.3999 39.9668C76.4064 39.9668 75.6 39.2798 75.6 38.4335C75.6 37.5872 76.4064 36.9002 77.3999 36.9002H81C81.9935 36.9002 82.7999 37.5872 82.7999 38.4335C82.7999 39.2798 81.9935 39.9668 81 39.9668H77.3999ZM86.4 56.8333C82.4291 56.8333 79.2001 54.0825 79.2001 50.7C79.2001 47.3176 82.4293 44.5668 86.4 44.5668C90.3709 44.5668 93.5999 47.3176 93.5999 50.7C93.5999 54.0825 90.3709 56.8333 86.4 56.8333Z" fill="#F1AF05"/>
</svg>
