<svg class="icon" width="37" height="38" viewBox="0 0 37 38"  xmlns="http://www.w3.org/2000/svg">
<path d="M0 1.25C0 0.918479 0.131696 0.600537 0.366117 0.366116C0.600537 0.131696 0.918479 0 1.25 0H5C5.27883 7.70287e-05 5.54963 0.0933767 5.76933 0.265062C5.98903 0.436747 6.14502 0.67696 6.2125 0.9475L7.225 5H36.25C36.4335 5.00017 36.6148 5.04076 36.7809 5.11888C36.947 5.197 37.0938 5.31074 37.211 5.45201C37.3282 5.59328 37.4128 5.75863 37.4588 5.93629C37.5049 6.11396 37.5113 6.29959 37.4775 6.48L33.7275 26.48C33.6739 26.7664 33.5219 27.0252 33.2977 27.2114C33.0736 27.3976 32.7914 27.4997 32.5 27.5H10C9.70858 27.4997 9.42641 27.3976 9.20228 27.2114C8.97814 27.0252 8.82612 26.7664 8.7725 26.48L5.025 6.5175L4.025 2.5H1.25C0.918479 2.5 0.600537 2.3683 0.366117 2.13388C0.131696 1.89946 0 1.58152 0 1.25ZM12.5 27.5C11.1739 27.5 9.90215 28.0268 8.96447 28.9645C8.02678 29.9021 7.5 31.1739 7.5 32.5C7.5 33.8261 8.02678 35.0979 8.96447 36.0355C9.90215 36.9732 11.1739 37.5 12.5 37.5C13.8261 37.5 15.0979 36.9732 16.0355 36.0355C16.9732 35.0979 17.5 33.8261 17.5 32.5C17.5 31.1739 16.9732 29.9021 16.0355 28.9645C15.0979 28.0268 13.8261 27.5 12.5 27.5ZM30 27.5C28.6739 27.5 27.4021 28.0268 26.4645 28.9645C25.5268 29.9021 25 31.1739 25 32.5C25 33.8261 25.5268 35.0979 26.4645 36.0355C27.4021 36.9732 28.6739 37.5 30 37.5C31.3261 37.5 32.5979 36.9732 33.5355 36.0355C34.4732 35.0979 35 33.8261 35 32.5C35 31.1739 34.4732 29.9021 33.5355 28.9645C32.5979 28.0268 31.3261 27.5 30 27.5ZM12.5 30C13.163 30 13.7989 30.2634 14.2678 30.7322C14.7366 31.2011 15 31.837 15 32.5C15 33.163 14.7366 33.7989 14.2678 34.2678C13.7989 34.7366 13.163 35 12.5 35C11.837 35 11.2011 34.7366 10.7322 34.2678C10.2634 33.7989 10 33.163 10 32.5C10 31.837 10.2634 31.2011 10.7322 30.7322C11.2011 30.2634 11.837 30 12.5 30ZM30 30C30.663 30 31.2989 30.2634 31.7678 30.7322C32.2366 31.2011 32.5 31.837 32.5 32.5C32.5 33.163 32.2366 33.7989 31.7678 34.2678C31.2989 34.7366 30.663 35 30 35C29.337 35 28.7011 34.7366 28.2322 34.2678C27.7634 33.7989 27.5 33.163 27.5 32.5C27.5 31.837 27.7634 31.2011 28.2322 30.7322C28.7011 30.2634 29.337 30 30 30Z" />
</svg>
