<svg width="25" height="25" viewBox="0 0 25 25" fill="none" xmlns="http://www.w3.org/2000/svg">
<g clip-path="url(#clip0_10_65)">
<path fill-rule="evenodd" clip-rule="evenodd" d="M2.94532 0.798423C3.21871 0.525436 3.54701 0.31367 3.90844 0.177157C4.26987 0.0406442 4.65618 -0.0174979 5.04178 0.00658364C5.42738 0.0306652 5.80346 0.136421 6.1451 0.316842C6.48674 0.497263 6.78613 0.748229 7.02344 1.05311L9.82813 4.65624C10.3422 5.31717 10.5234 6.17811 10.3203 6.99061L9.46563 10.4125C9.42144 10.5897 9.42383 10.7754 9.47256 10.9514C9.52129 11.1274 9.61471 11.2879 9.74375 11.4172L13.5828 15.2562C13.7122 15.3855 13.873 15.4791 14.0493 15.5279C14.2256 15.5766 14.4116 15.5788 14.5891 15.5344L18.0094 14.6797C18.4103 14.5794 18.8288 14.5716 19.2333 14.6569C19.6377 14.7422 20.0174 14.9183 20.3438 15.1719L23.9469 17.975C25.2422 18.9828 25.3609 20.8969 24.2016 22.0547L22.5859 23.6703C21.4297 24.8265 19.7016 25.3344 18.0906 24.7672C13.9675 23.3164 10.2239 20.956 7.1375 17.8609C4.04264 14.775 1.6822 11.032 0.231253 6.90936C-0.334372 5.29999 0.173441 3.5703 1.32969 2.41405L2.94532 0.798423Z" fill="black"/>
</g>
<defs>
<clipPath id="clip0_10_65">
<rect width="25" height="25" fill="white"/>
</clipPath>
</defs>
</svg>
