<svg width="21" height="14" viewBox="0 0 21 14" fill="none" xmlns="http://www.w3.org/2000/svg">
<g clip-path="url(#clip0_10_70)">
<path d="M19.9541 1.13083C19.9793 1.04758 19.9856 0.971269 19.9856 0.901894C19.9856 0.846393 19.9793 0.79783 19.9604 0.77008C19.9415 0.74233 19.8974 0.71458 19.8344 0.693767C19.7651 0.672954 19.6706 0.659079 19.5572 0.659079H17.3267C17.1125 0.659079 16.9676 0.71458 16.8605 0.804768C16.7534 0.894956 16.6841 1.01983 16.6274 1.15858L16.6211 1.16552C16.5392 1.38752 15.4113 4.32211 13.8299 6.27157L13.8173 6.28544C13.5401 6.59069 13.3384 6.79188 13.162 6.91676C12.9478 7.07632 12.7714 7.13182 12.5635 7.13182C12.3933 7.13182 12.1791 7.02082 12.0468 6.7572C11.9712 6.60457 11.9145 6.38951 11.9145 6.10507V1.2349C11.9145 0.992082 11.8893 0.825581 11.8326 0.74233C11.7948 0.686829 11.7129 0.659079 11.5806 0.659079H8.07111C7.9829 0.659079 7.91359 0.686829 7.86949 0.735392C7.82538 0.783955 7.80018 0.839456 7.80018 0.894956C7.80018 1.00596 7.88839 1.1239 8.0018 1.27652C8.26643 1.64421 8.63186 2.13678 8.68857 3.2676V6.90982C8.68857 7.3677 8.64446 7.6452 8.54995 7.83252C8.41764 8.10308 8.22862 8.17246 7.9766 8.17246C7.47885 8.17246 6.70387 7.29139 5.92889 5.91775C5.24842 4.71062 4.53645 3.1011 4.0072 1.39446C4.0072 1.38752 4.0009 1.38059 4.0009 1.36671C3.91269 1.08921 3.83078 0.901894 3.72367 0.790893C3.62916 0.700704 3.49685 0.652142 3.28893 0.652142H1.05851C0.831683 0.652142 0.705671 0.693767 0.648965 0.763143C0.60486 0.818643 0.592259 0.915769 0.592259 1.01983C0.592259 1.39446 0.869487 2.69178 1.70117 4.62736C2.23672 5.86919 2.9991 7.34689 4.05761 8.98415C4.93339 10.3717 5.9856 11.447 7.10081 12.1824C8.25383 12.9455 9.46985 13.3409 10.6229 13.3409C11.2718 13.3409 11.6184 13.2716 11.7885 13.1467C11.9019 13.0634 11.9208 12.9108 11.9208 12.7166V10.5104C11.9208 10.0803 11.9712 9.80972 12.1098 9.62241C12.2673 9.40734 12.4878 9.34491 12.8029 9.34491C13.0108 9.34491 13.2817 9.40041 13.6913 9.6571C14.0567 9.89297 14.5545 10.3023 15.2349 11.0238L15.2412 11.0307C15.6949 11.5302 16.0351 11.9465 16.3186 12.2934C16.9109 13.0149 17.1818 13.3479 17.6481 13.3479H19.8785C19.9982 13.3479 20.0927 13.334 20.1746 13.3063C20.2565 13.2785 20.3195 13.2438 20.3573 13.1883C20.3888 13.1398 20.4077 13.0704 20.4077 12.9871C20.4077 12.9108 20.3951 12.8276 20.3699 12.7304C20.2817 12.4182 20.0612 12.0297 19.7588 11.5719C19.4437 11.1001 19.0279 10.559 18.5491 9.96929C18.5428 9.96235 18.5428 9.95541 18.5365 9.95541C18.2844 9.62241 17.9631 9.27553 17.6733 8.97028C17.3834 8.65809 17.1314 8.38752 16.9991 8.1794C16.7849 7.87414 16.7093 7.63133 16.7219 7.38851C16.7408 7.15264 16.8353 6.96532 16.9802 6.71557C16.9865 6.7017 16.9991 6.68782 17.0054 6.68088C17.2133 6.35482 19.6832 2.48366 19.9478 1.17246C19.9478 1.15858 19.9541 1.15165 19.9541 1.13777V1.13083ZM20.5842 0.901894C20.5842 1.03371 20.5653 1.17246 20.5275 1.31815C20.2313 2.7681 17.6985 6.72945 17.4905 7.05551L17.4842 7.06245C17.3897 7.22895 17.3204 7.35383 17.3141 7.44401C17.3078 7.52033 17.3519 7.62439 17.4653 7.78396C17.4653 7.79089 17.4716 7.79089 17.4716 7.79783C17.5725 7.95046 17.8119 8.21408 18.0891 8.5124C18.3852 8.83153 18.7192 9.19228 18.9838 9.53916L18.9901 9.5461C19.4752 10.1427 19.8974 10.6977 20.2313 11.1972C20.5779 11.7106 20.8236 12.1616 20.9307 12.5431V12.5501C20.9748 12.7166 20.9937 12.8623 20.9937 13.001C20.9937 13.2438 20.9307 13.445 20.811 13.6115C20.6976 13.7711 20.5338 13.8821 20.3321 13.9514C20.1935 13.9931 20.0423 14.0208 19.8722 14.0208H17.6418C16.9109 14.0208 16.5833 13.6184 15.8713 12.7443C15.6004 12.4113 15.2664 12.002 14.8191 11.5094C14.1764 10.8295 13.7228 10.448 13.3951 10.2399C13.1053 10.0525 12.9289 10.0178 12.8029 10.0178C12.6706 10.0178 12.595 10.0248 12.5761 10.0525C12.532 10.108 12.5194 10.2607 12.5194 10.5312V12.7374C12.5194 13.1398 12.4563 13.4658 12.1224 13.7156C11.8515 13.9168 11.4041 14.0208 10.6292 14.0208C9.36904 14.0208 8.0459 13.5907 6.80468 12.7721C5.62016 11.9881 4.50495 10.8504 3.57876 9.38653C2.49505 7.71458 1.72007 6.20219 1.17192 4.93955C0.29613 2.90685 0 1.47771 0 1.05452C0 0.79783 0.050405 0.548078 0.226823 0.346889C0.390639 0.159575 0.655265 0.0346985 1.06481 0.0346985H3.29523C3.66067 0.0346985 3.91899 0.131824 4.12691 0.346889C4.31593 0.54114 4.44194 0.811705 4.56166 1.18633C4.56796 1.19327 4.56796 1.20715 4.57426 1.21408C5.09091 2.8791 5.78398 4.44005 6.43924 5.6125C7.10711 6.79882 7.69307 7.55502 7.9829 7.55502H8.0396C8.08371 7.47177 8.10261 7.28445 8.10261 6.94451V3.3231C8.0522 2.41428 7.76238 2.0119 7.54815 1.72053C7.35914 1.46384 7.21422 1.26958 7.21422 0.922706C7.21422 0.686829 7.30873 0.450952 7.48515 0.277513C7.63636 0.131824 7.83798 0.0346985 8.08371 0.0346985H11.5932C11.9334 0.0346985 12.1665 0.145699 12.324 0.388514C12.4626 0.596641 12.5194 0.888019 12.5194 1.26958V6.13975C12.5194 6.30625 12.5446 6.41032 12.5761 6.47969C12.5887 6.50744 12.5635 6.51438 12.5761 6.51438C12.658 6.51438 12.7399 6.48663 12.847 6.40338C12.9856 6.29932 13.162 6.12588 13.4077 5.85531C14.9199 3.98217 16.0099 1.14471 16.0855 0.943519C16.0855 0.936582 16.0918 0.929644 16.0918 0.929644C16.18 0.700704 16.3123 0.478702 16.514 0.312201C16.7156 0.145699 16.9802 0.0346985 17.3393 0.0346985H19.5698C19.7399 0.0346985 19.8911 0.0555112 20.0171 0.0971365C20.2124 0.159575 20.351 0.270576 20.4518 0.416264C20.5527 0.568891 20.5968 0.74233 20.5968 0.929644L20.5842 0.901894Z" fill="black"/>
</g>
<defs>
<clipPath id="clip0_10_70">
<rect width="21" height="14" fill="white"/>
</clipPath>
</defs>
</svg>
